<svg xmlns="http://www.w3.org/2000/svg" version="1.1" xmlns:xlink="http://www.w3.org/1999/xlink" xmlns:svgjs="http://svgjs.dev/svgjs" viewBox="0 0 800 800" opacity="1"><defs><linearGradient gradientTransform="rotate(45)" x1="50%" y1="0%" x2="50%" y2="100%" id="uundulate-grad"><stop stop-color="#17c1fb" stop-opacity="1" offset="45%"></stop><stop stop-color="hsl(272, 99%, 54%)" stop-opacity="1" offset="100%"></stop></linearGradient></defs><g stroke-width="1" stroke="url(#uundulate-grad)" fill="none"><path d="M2626.9761704880884 -358.5492272571282C2631.1955183170912 569.3761730402916 2078.37530853753 2620.292692060905 1150.4648729489827 2627.043613413084C222.5544373604348 2633.794534765262 -1822.7745725079317 601.7805955307508 -1826.9939203369343 -326.1448047666688C-1831.213268165937 -1254.0702050640884 202.30156778121773 -1820.2473866623495 1130.2120033697652 -1826.9983080145282C2058.122438958313 -1833.749229366707 2622.7568226590856 -1286.4746275545476 2626.9761704880884 -358.5492272571282C2631.1955183170912 569.3761730402916 2078.37530853753 2620.292692060905 1150.4648729489827 2627.043613413084 "></path><path d="M2561.476860585176 -336.2390456247954C2565.57210994862 564.3944311344649 2029.0113181037514 2554.9898760662372 1128.3923659148672 2561.5422409080575C227.77341372598266 2568.0946057498777 -1757.39886055802 595.8457823752046 -1761.4941099214639 -304.7876943840554C-1765.5893592849077 -1205.4211711433156 208.1162167814482 -1754.946082694569 1108.7351689703332 -1761.4984475363894C2009.3541211592164 -1768.05081237821 2557.381611221732 -1236.8725223840554 2561.476860585176 -336.2390456247954C2565.57210994862 564.3944311344649 2029.0113181037514 2554.9898760662372 1128.3923659148672 2561.5422409080575 "></path><path d="M2495.9777643053103 -313.92855881668083C2499.9489152031947 559.4129944044198 1979.64754129302 2489.6873652473505 1106.3200725037987 2496.041173578813C232.99260371457785 2502.3949819102754 -1692.0229349850615 589.9112743954402 -1695.9940858829464 -283.4302788256605C-1699.9652367808314 -1156.7718320467616 213.931079404726 -1689.6444735510072 1087.2585481939473 -1695.9982818824697C1960.5860169831685 -1702.3520902139317 2492.006613407425 -1187.270112037782 2495.9777643053103 -313.92855881668083C2499.9489152031947 559.4129944044198 1979.64754129302 2489.6873652473505 1106.3200725037987 2496.041173578813 "></path><path d="M2430.4783323320853 -291.6184992546607C2434.325384764411 554.4311304282805 1930.283428788929 2424.384427182369 1084.2474433993707 2430.539679003474C238.2114580098132 2436.6949308245776 -1626.6473451054626 583.9763391695815 -1630.4943975377885 -262.0732905133598C-1634.3414499701144 -1108.122920196301 219.74560633464444 -1624.3432916535394 1065.7815917242024 -1630.4985434746434C1911.8175771137603 -1636.6537952957474 2426.6312798997587 -1137.6681289376022 2430.4783323320853 -291.6184992546607C2434.325384764411 554.4311304282805 1930.283428788929 2424.384427182369 1084.2474433993707 2430.539679003474 "></path><path d="M2364.979297087376 -269.3082565871716C2368.702251054143 549.44944955761 1880.9197130133539 2359.0816722228574 1062.1752110234588 2365.0383675336034C243.43070903356374 2370.9950628443494 -1561.2713584973476 578.0415870491915 -1564.994312464115 -240.71611909559033C-1568.7172664308819 -1059.4738252403722 225.56052999307803 -1559.0419266506026 1044.305031982973 -1564.9986219613484C1863.0495339728682 -1570.9553172720944 2361.256343120609 -1088.0659627319537 2364.979297087376 -269.3082565871716C2368.702251054143 549.44944955761 1880.9197130133539 2359.0816722228574 1062.1752110234588 2365.0383675336034 "></path><path d="M2299.4797125262594 -246.998074954839C2303.0785680274685 544.4677076517837 1831.5554479213724 2293.7788562281894 1040.1024293311407 2299.5369950285767C248.64941074090893 2305.295133828965 -1495.8959212056393 572.1067738936458 -1499.4947767068475 -219.35900871297667C-1503.0936322080556 -1010.8247913195993 231.37490433510584 -1493.740622682822 1022.8279229253376 -1499.4987614832098C1814.2809415155693 -1505.2569002835974 2295.880857025052 -1038.4638575614615 2299.4797125262594 -246.998074954839C2303.0785680274685 544.4677076517837 1831.5554479213724 2293.7788562281894 1040.1024293311407 2299.5369950285767 "></path><path d="M2233.98052469366 -224.68783228734992C2237.4552817293093 539.4860267811127 1782.1915795579057 2228.476101268677 1018.0300443673377 2234.0356835587068C253.86850917676884 2239.5952658487363 -1430.5200871854152 566.1720217732563 -1433.9948442210646 -198.00183729520722C-1437.4696012567138 -962.1756963636702 237.18967540564904 -1428.4392576798853 1001.3512105962177 -1433.9988399699148C1765.5127457867866 -1439.558422259944 2230.505767658011 -988.861691355813 2233.98052469366 -224.68783228734992C2237.4552817293093 539.4860267811127 1782.1915795579057 2228.476101268677 1018.0300443673377 2234.0356835587068 "></path><path d="M2168.481214790748 -202.37749806712645C2171.8318733608385 534.504437463177 1732.8275891241274 2163.1734378619 995.9575373332223 2168.534463641571C259.0874855423169 2173.895489421243 -1365.1443752355035 560.2373612056008 -1368.495033805594 -176.64457432470317C-1371.8456923756844 -913.5265098550068 243.00432440587997 -1363.137801124214 979.8743761967853 -1368.4988269038854C1716.7444279876904 -1373.8598526835567 2165.130556220657 -939.2594335974302 2168.481214790748 -202.37749806712645C2171.8318733608385 534.504437463177 1732.8275891241274 2163.1734378619 995.9575373332223 2168.534463641571 "></path><path d="M2102.981874370257 -180.0672859172157C2106.2084344747886 529.5227260749289 1683.463568172771 2097.8706523848095 973.8849997815287 2103.0331216541226C264.30643139028643 2108.1955909234357 -1299.7686938031702 554.3025785676327 -1302.9952539077017 -155.2874334245114C-1306.2218140122332 -864.877445416656 248.81894288853232 -1297.8364666388557 958.3975112797748 -1302.9989359081687C1667.976079671017 -1308.1614051774818 2099.7553142657257 -889.6572979093598 2102.981874370257 -180.0672859172157C2106.2084344747886 529.5227260749289 1683.463568172771 2097.8706523848095 973.8849997815287 2103.0331216541226 "></path><path d="M2037.4827170552353 -157.75695169699202C2040.5851786942076 524.5411367569932 1634.0997303268832 2032.5679889780322 951.8126453353043 2037.5319017369875C269.52556034372515 2042.4958144959423 -1234.392829265368 548.3679179999772 -1237.4952909043404 -133.93017045400734C-1240.5977525433132 -816.2282589079923 254.63374447665365 -1232.5350100831845 936.920829468233 -1237.4989228421393C1619.207914459812 -1242.4628356010942 2034.3802554162626 -840.055040150977 2037.4827170552353 -157.75695169699202C2040.5851786942076 524.5411367569932 1634.0997303268832 2032.5679889780322 951.8126453353043 2037.5319017369875 "></path><path d="M1971.9834071523223 -135.44673954708128C1974.9617703257363 519.5594253687441 1584.735739893105 1967.2652035009419 929.7401383011888 1972.030559749539C274.744536709273 1976.7959159981351 -1169.0171173154563 542.4331353620096 -1171.99548048887 -112.57302955381601C-1174.9738436622838 -767.5791944696415 260.44839347688435 -1167.2336755978258 915.4439950688006 -1171.9990318464224C1570.4395966607162 -1176.764388095019 1969.0050439789088 -790.4529044629068 1971.9834071523223 -135.44673954708128C1974.9617703257363 519.5594253687441 1584.735739893105 1967.2652035009419 929.7401383011888 1972.030559749539 "></path><path d="M1906.4840667318317 -113.13628325654508C1909.338331439687 514.5779581211209 1535.3717189417484 1901.962662164477 907.6676007494953 1906.5294619027163C279.96348255724274 1911.0962616409543 -1103.6414358831228 536.498596864667 -1106.4957005909778 -91.21564451299946C-1109.3499652988326 -718.9298858906654 266.26301195953715 -1101.9320969718422 893.9671301517901 -1106.4988967100808C1521.6712483440429 -1111.0656964483192 1903.629802023977 -740.8505246342114 1906.4840667318317 -113.13628325654508C1909.338331439687 514.5779581211209 1535.3717189417484 1901.962662164477 907.6676007494953 1906.5294619027163 "></path><path d="M1840.9846347586072 -90.82607110663412C1843.7148010009028 509.5962467328725 1486.0076064376576 1836.6598766873876 885.5949716450677 1841.0281199152678C285.1823368524781 1845.396363143148 -1038.2658460035236 530.5638142266992 -1040.9960122458197 -69.85850361280768C-1043.7261784881155 -670.2808214523145 272.07753888945535 -1036.6307624864835 872.4901736820448 -1040.9990057143639C1472.9028084746346 -1045.3672489422443 1838.2544685163111 -691.2483889461411 1840.9846347586072 -90.82607110663412C1843.7148010009028 509.5962467328725 1486.0076064376576 1836.6598766873876 885.5949716450677 1841.0281199152678 "></path><path d="M1775.4853553732723 -68.51573688641065C1778.0914231500096 504.61465741493635 1436.643646521457 1771.3572132806094 863.5224951285309 1775.5268999981317C290.4013437356041 1779.6965867156541 -972.8901035360341 524.6291536590436 -975.496171312771 -48.50124064230363C-978.102239089508 -621.6316349436511 277.8922184072642 -971.3293059308124 851.0133698001905 -975.4989926483345C1424.134521193117 -979.6686793658566 1772.8792875965355 -641.6461311877582 1775.4853553732723 -68.51573688641065C1778.0914231500096 504.61465741493635 1436.643646521457 1771.3572132806094 863.5224951285309 1775.5268999981317 "></path><path d="M1709.9860149527817 -46.20549421892156C1712.4679842639598 499.6329765442663 1387.2796255701005 1706.054458321098 841.4499575768368 1710.0255885282618C295.6202895835738 1713.9967187354255 -907.5144221037006 518.6944015386541 -909.9963914148786 -27.14406922453395C-912.4783607260567 -572.982539987722 283.70683688991676 -906.0279409278756 829.53650488318 -909.9990711350396C1375.3661728764432 -913.9702013422035 1707.5040456416036 -592.0439649821097 1709.9860149527817 -46.20549421892156C1712.4679842639598 499.6329765442663 1387.2796255701005 1706.054458321098 841.4499575768368 1710.0255885282618 "></path><path d="M1644.4868271201817 -23.89519051627667C1646.844697965801 494.65135670875225 1337.9157572066342 1640.7517643967421 819.3775726130343 1644.5243380935476C300.8393880194342 1648.2969117903535 -842.1385880834764 512.7597104534204 -844.4964589290956 -5.78683677160825C-846.8543297747149 -524.3333839966367 289.52160796045996 -840.7265148897827 808.0597925540601 -844.4990885865884C1326.59797714766 -848.2716622833941 1642.1289562745628 -542.4417377413051 1644.4868271201817 -23.89519051627667C1646.844697965801 494.65135670875225 1337.9157572066342 1640.7517643967421 819.3775726130343 1644.5243380935476 "></path><path d="M1578.9875172172692 -1.5849478487873512C1581.2212895973294 489.66967583808196 1288.551766772856 1575.4490094372304 797.3050655789189 1579.0230266236777C306.05836438498204 1582.5970438101253 -776.7628761335649 506.82495833303074 -778.9966485136251 15.570334646161655C-781.2304208936855 -475.68428904070765 295.33625696069066 -775.4251498868459 786.5829581546277 -778.9991670732934C1277.8296593485647 -782.5731842597409 1576.753744837209 -492.83957153565666 1578.9875172172692 -1.5849478487873512C1581.2212895973294 489.66967583808196 1288.551766772856 1575.4490094372304 797.3050655789189 1579.0230266236777 "></path><path d="M1513.4881767967786 20.725355853857764C1515.59785071128 484.6880560025677 1239.1877458214994 1510.1463155128745 775.2325280272257 1513.521776188964C311.2773102329518 1516.897236865053 -711.3871947012315 500.8902672477973 -713.4968686157329 36.927567099087355C-715.6065425302342 -427.03513304962235 301.15087544334324 -710.1237238487529 765.106093237617 -713.4991845248422C1229.061311031891 -716.8746452009316 1511.3785028822772 -443.23734429485194 1513.4881767967786 20.725355853857764C1515.59785071128 484.6880560025677 1239.1877458214994 1510.1463155128745 775.2325280272257 1513.521776188964 "></path><path d="M1447.9888974114442 43.03559852134708C1449.9744728603864 479.7063751318974 1189.8237859052988 1444.8435605533627 753.1600515106884 1448.020464719094C316.496317116078 1451.1973688848252 -646.0114522337417 494.9555151274076 -647.9970276826841 58.28473851685726C-649.9826031316267 -378.3860380936933 306.96555496115207 -644.8223588458161 743.6292893557627 -647.9992630115473C1180.2930237503733 -651.1761671772783 1446.0033219625016 -393.63517808920346 1447.9888974114442 43.03559852134708C1449.9744728603864 479.7063751318974 1189.8237859052988 1444.8435605533627 753.1600515106884 1448.020464719094 "></path><path d="M1382.4895875085317 65.34590222399231C1384.3510644919152 474.72475529638314 1140.459795471521 1379.5408666290068 731.0875444765732 1382.5192142843798C321.7152934816256 1385.4975619397528 -580.63574028383 489.0208240421739 -582.4972172672137 79.64197096978296C-584.3586942505972 -329.736882102608 312.78020396138277 -579.5209328077232 722.1524549563303 -582.499280463096C1131.5247059512776 -585.477628118469 1380.6281105251483 -344.03295084839874 1382.4895875085317 65.34590222399231C1384.3510644919152 474.72475529638314 1140.459795471521 1379.5408666290068 731.0875444765732 1382.5192142843798 "></path><path d="M1316.9902470880406 87.65614489148129C1318.7276256058658 469.7430744257126 1091.0957745201638 1314.238111669495 709.0150069248798 1317.0179028145094C326.93423932959536 1319.7976939595246 -515.2600588514966 483.0860719217844 -516.9974373693212 100.99914238755264C-518.7348158871459 -281.0877871466789 318.59482244403534 -514.2195678047864 700.6755900393198 -516.9993589498011C1082.7563576346042 -519.7791500948158 1315.2528685702164 -294.43078464275027 1316.9902470880406 87.65614489148129C1318.7276256058658 469.7430744257126 1091.0957745201638 1314.238111669495 709.0150069248798 1317.0179028145094 "></path><path d="M1251.4909371851286 109.96647911170464C1253.1042172373943 464.76148510777693 1041.7317840863855 1248.9354482627173 686.9424998907643 1251.5166828973738C332.1532156951432 1254.0979175320304 -449.88434690158505 477.15141135412887 -451.4976269538508 122.3564053580568C-453.1109070061166 -232.4386006380155 324.4094714442663 -448.91811124911527 679.1987556398874 -451.4993458837718C1033.9880398355085 -454.08058051842835 1249.8776571328629 -244.82852688436742 1251.4909371851286 109.96647911170464C1253.1042172373943 464.76148510777693 1041.7317840863855 1248.9354482627173 686.9424998907643 1251.5166828973738 "></path><path d="M1185.991688317372 132.27663022645936C1187.480869904079 459.77971268437204 992.3678546877634 1183.632601750471 664.8700538918054 1186.0152798747695C337.37225309584755 1188.3979579990676 -384.5085739165172 471.2165676810048 -385.9977555032241 143.713485223092C-387.4869370899309 -183.7895972348208 330.224181479653 -383.6168377989129 657.7219822756113 -385.9995159232112C985.219783071569 -388.3821940475096 1184.5025067306653 -195.22645223145332 1185.991688317372 132.27663022645936C1187.480869904079 459.77971268437204 992.3678546877634 1183.632601750471 664.8700538918054 1186.0152798747695 "></path><path d="M1120.4923478968817 154.58696444668294C1121.8574310180295 454.79812336643636 943.0038337364069 1118.3299383436938 642.797516340112 1120.514059957634C342.5911989438172 1122.698181571574 -319.13289248418374 465.28190711334946 -320.4979756053317 165.07074819359616C-321.86305872647966 -135.14041072615726 336.0387999623058 -318.31538124324175 636.2451173586005 -320.49950285718194C936.4514347548954 -322.6836244711221 1119.1272647757337 -145.62419447307047 1120.4923478968817 154.58696444668294C1121.8574310180295 454.79812336643636 943.0038337364069 1118.3299383436938 642.797516340112 1120.514059957634 "></path><path d="M1054.9930074763909 176.89723763175016C1056.23399213198 449.81647301334397 893.6398127850503 1053.02721390176 620.7249787884184 1055.0127790053418C347.8101447917869 1056.9983441089237 -253.75721105185028 459.3471855105381 -254.99819570743932 186.42795012894396C-256.23918036302837 -86.49128525265007 341.8534184449584 -253.0139857227269 614.76825244159 -254.99955082630885C887.6830864382216 -256.9851159298908 1053.7520228208018 -96.02199774984388 1054.9930074763909 176.89723763175016C1056.23399213198 449.81647301334397 893.6398127850503 1053.02721390176 620.7249787884184 1055.0127790053418 "></path><path d="M989.4937586086346 199.20751081681726C990.6106447986647 444.8348226602519 844.275883386428 987.7244894598261 598.6525327894594 989.5114980530498C353.029182192491 991.2985066462736 -188.38143806678244 453.4124639077263 -189.49832425681257 207.78515206429176C-190.6152104468427 -37.84215977914289 347.66812848034533 -187.71259020221203 593.2914790773139 -189.49959879543576C838.9148296742824 -191.28660738865955 988.3768724186045 -46.41980102661739 989.4937586086346 199.20751081681726C990.6106447986647 444.8348226602519 844.275883386428 987.7244894598261 598.6525327894594 989.5114980530498 "></path><path d="M923.9944487057221 221.51778400188448C924.9872364301932 439.85317230715964 794.9118929526494 922.4217650178923 576.5800257553442 924.0102171007579C358.248158558039 925.5986691836235 -123.00572611687085 447.4777423049147 -123.99851384134206 229.14235399963957C-124.99130156581333 10.806965694364294 353.48277748057603 -122.41119468169711 571.8146446778815 -123.99964676456273C790.1465118751867 -125.58809884742828 923.0016609812508 3.1823956966092055 923.9944487057221 221.51778400188448C924.9872364301932 439.85317230715964 794.9118929526494 922.4217650178923 576.5800257553442 924.0102171007579 "></path><path d="M858.4951388028094 243.82805718695158C859.363828061722 434.87152195406725 745.5479025188711 857.1190405759585 554.507518721229 858.5089361484656C363.46713492358674 859.8988317209732 -57.630014166959256 441.54302070210315 -58.49870342587161 250.49955593498726C-59.36739268478391 59.45609116787148 359.29742648080673 -57.10979916118225 550.337810278449 -58.49969473368964C741.3781940760912 -59.88959030619702 857.6264495438973 52.7845924198358 858.4951388028094 243.82805718695158C859.363828061722 434.87152195406725 745.5479025188711 857.1190405759585 554.507518721229 858.5089361484656 "></path><path d="M792.9958288998969 266.1383608895969C793.7404196932505 429.8899021185532 696.1839120850927 791.8163466516025 532.4350116871136 793.0076857137519C368.6861112891347 794.1990247759009 7.745697782952334 435.6083296168696 7.001106989598895 271.8567883879132C6.256516196245457 108.10524715895679 365.11207548103744 8.191626876910732 528.8609758790166 7.0002878147615775C692.6098762769955 5.808948752612423 792.2512381065435 102.38681966064053 792.9958288998969 266.1383608895969C793.7404196932505 429.8899021185532 696.1839120850927 791.8163466516025 532.4350116871136 793.0076857137519 "></path><path d="M727.4965189969845 288.44863407466414C728.117011324779 424.90825176546105 646.8199216513142 726.5136222096689 510.36250465299827 727.5064047614601C373.9050876546826 728.4991873132508 73.12140973286392 429.6736080140581 72.5009174050694 293.213990323261C71.88042507727488 156.75437263246403 370.92672448126825 73.49302239742559 507.38414147958406 72.50023984563467C643.8415584778999 71.50745729384369 726.87602666919 151.98901638386712 727.4965189969845 288.44863407466414C728.117011324779 424.90825176546105 646.8199216513142 726.5136222096689 510.36250465299827 727.5064047614601 "></path><path d="M661.9972396116501 310.75890725973136C662.4936334738857 419.9266014123689 597.4559617351138 661.2108977677352 488.29002813646116 662.005123809168C379.12409453780856 662.7993498506008 138.49715220035364 423.7388864112464 138.00075833811803 314.5711922586088C137.50436447588243 205.4034981059712 376.7414039990771 138.7944179179405 485.9073375977298 138.0001918765077C595.0732711963824 137.20596583507495 661.5008457494145 201.59121310709367 661.9972396116501 310.75890725973136C662.4936334738857 419.9266014123689 597.4559617351138 661.2108977677352 488.29002813646116 662.005123809168 "></path><path d="M596.4978839323703 333.0691651860094C596.8701793290471 414.94493580048754 548.0919255249682 595.9081580670122 466.21747532597874 596.5038275980869C384.34302512698923 597.0994971291614 203.87281837389804 417.8041495496457 203.50052297722135 335.92837893516753C203.1282275805446 254.05260832068933 382.5560072229406 204.0957981796663 464.4304574219302 203.50012864859173C546.3049076209196 202.90445911751715 596.1255885356936 251.1933945715312 596.4978839323703 333.0691651860094C596.8701793290471 414.94493580048754 548.0919255249682 595.9081580670122 466.21747532597874 596.5038275980869 "></path><path d="M530.998619805825 355.3794536298657C531.2468167369428 409.96330070618444 498.7279808675569 530.6054488838677 444.1450140682306 531.002561904584C389.5620472689043 531.3996749253004 269.2485761001768 411.86944320562316 269.000379169059 357.2855961293044C268.7521822379412 302.70174905298563 388.37070199953854 269.3972089589702 442.9536687988649 269.0000959382539C497.5366355981912 268.6029829175375 530.7504228747073 300.79560655354686 530.998619805825 355.3794536298657C531.2468167369428 409.96330070618444 498.7279808675569 530.6054488838677 444.1450140682306 531.002561904584 "></path><path d="M465.4993099029125 377.68972681493284C465.6234083684714 404.9816503530922 449.36399043377844 465.30272444193383 422.0725070341153 465.501280952292C394.78102363445214 465.6998374626502 334.6242880500884 405.9347216028116 334.5001895845295 378.6427980646522C334.3760911189706 351.3508745264928 394.1853509997693 334.69860447948514 421.47683439943245 334.5000479691269C448.7683177990956 334.30149145876874 465.37521143735364 350.3978032767734 465.4993099029125 377.68972681493284C465.6234083684714 404.9816503530922 449.36399043377844 465.30272444193383 422.0725070341153 465.501280952292 "></path></g></svg>